<svg xmlns="http://www.w3.org/2000/svg" viewBox="0 0 300 300" width="100%" height="100%">
  <!-- Gold Four-Point Stars -->
  <path d="M150 20 C150 50, 180 50, 180 50 C180 50, 150 50, 150 80 C150 50, 120 50, 120 50 C120 50, 150 50, 150 20 Z" fill="#D4AF37"/>
  <path d="M40 100 C40 115, 55 115, 55 115 C55 115, 40 115, 40 130 C40 115, 25 115, 25 115 C25 115, 40 115, 40 100 Z" fill="#FFD700"/>
  <path d="M260 180 C260 195, 275 195, 275 195 C275 195, 260 195, 260 210 C260 195, 245 195, 245 195 C245 195, 260 195, 260 180 Z" fill="#D4AF37"/>
  
  <!-- Red & Gold Confetti Circles -->
  <circle cx="80" cy="50" r="6" fill="#8B0000"/>
  <circle cx="230" cy="70" r="5" fill="#FF6B6B"/>
  <circle cx="210" cy="140" r="8" fill="#D4AF37"/>
  <circle cx="60" cy="220" r="4" fill="#8B0000"/>
  <circle cx="120" cy="250" r="7" fill="#FFD700"/>
  
  <!-- Curved Festive Ribbons -->
  <path d="M20 70 Q 50 30, 80 80 T 120 40" fill="none" stroke="#D4AF37" stroke-width="4" stroke-linecap="round"/>
  <path d="M180 260 Q 210 210, 240 270 T 280 220" fill="none" stroke="#8B0000" stroke-width="4" stroke-linecap="round"/>
  <path d="M240 30 Q 270 20, 280 50 T 290 20" fill="none" stroke="#FFD700" stroke-width="3" stroke-linecap="round"/>
</svg>
